<svg width="176" height="176" viewBox="0 0 176 176" xmlns="http://www.w3.org/2000/svg"><title>Tradeshift.AppStore</title><g fill="none" fill-rule="evenodd"><path d="M16.672 176C7.464 176 0 168.536 0 159.328V16.672C0 7.464 7.464 0 16.672 0h142.656C168.536 0 176 7.464 176 16.672v142.656c0 9.208-7.464 16.672-16.672 16.672H16.672z" fill="#FCBF12" fill-rule="nonzero"/><path d="M32 32h112v112H32z"/><path d="M137.966 84.705l-13.435-13.44c-1.75-1.75-4.849-1.75-6.599 0A9.27 9.27 0 0 1 111.333 74c-5.147 0-9.333-4.186-9.333-9.333a9.27 9.27 0 0 1 2.735-6.599 4.661 4.661 0 0 0 0-6.599L91.299 38.04c-1.75-1.755-4.848-1.755-6.598 0L74.476 48.263c-3.449-4.307-8.69-6.93-14.476-6.93-10.295 0-18.667 8.372-18.667 18.667 0 5.782 2.623 11.027 6.93 14.476l-10.229 10.23A4.635 4.635 0 0 0 36.667 88c0 1.237.49 2.427 1.367 3.304l13.435 13.43a4.653 4.653 0 0 0 6.599 0A9.27 9.27 0 0 1 64.667 102c5.147 0 9.333 4.186 9.333 9.333a9.27 9.27 0 0 1-2.735 6.599 4.662 4.662 0 0 0 0 6.599l13.436 13.435a4.669 4.669 0 0 0 6.599.005l10.229-10.225c3.444 4.298 8.689 6.92 14.471 6.92 10.295 0 18.667-8.371 18.667-18.666 0-5.782-2.623-11.027-6.926-14.471l10.225-10.225a4.661 4.661 0 0 0 0-6.599zM116.709 99.36a4.669 4.669 0 0 0-1.227 4.442 4.654 4.654 0 0 0 3.187 3.328c3.986 1.194 6.664 4.76 6.664 8.871 0 5.147-4.186 9.333-9.333 9.333-4.111 0-7.677-2.674-8.876-6.659a4.673 4.673 0 0 0-3.327-3.183 4.656 4.656 0 0 0-4.438 1.223L88 128.068l-7.247-7.247a18.535 18.535 0 0 0 2.58-9.488c0-10.294-8.372-18.666-18.666-18.666-3.393 0-6.641.896-9.488 2.58L47.937 88 59.29 76.65a4.675 4.675 0 0 0 1.227-4.442 4.68 4.68 0 0 0-3.178-3.332c-3.995-1.2-6.673-4.765-6.673-8.876 0-5.147 4.186-9.333 9.333-9.333 4.111 0 7.677 2.683 8.876 6.668a4.664 4.664 0 0 0 7.765 1.956L88 47.932l7.247 7.247a18.56 18.56 0 0 0-2.58 9.488c0 10.294 8.372 18.666 18.666 18.666 3.393 0 6.641-.896 9.488-2.58L128.068 88l-11.359 11.359z" fill-rule="nonzero" fill="#FFF"/></g></svg>