<svg width="176" height="176" viewBox="0 0 176 176" xmlns="http://www.w3.org/2000/svg"><title>Tradeshift.AppManager</title><g fill="none"><path d="M16.672 176C7.464 176 0 168.536 0 159.328V16.672C0 7.464 7.464 0 16.672 0h142.656C168.536 0 176 7.464 176 16.672v142.656c0 9.208-7.464 16.672-16.672 16.672H16.672z" fill="#00B0FF"/><path d="M46 48h20v20H46V48zm30 0h20v20H76V48zM46 78h20v20H46V78zm30 0h20v4L80 98h-4V78zm-30 30h20v20H46v-20zm60-60h20v20h-20V48zm28.01 59.354a19.8 19.8 0 0 1 1.937 4.746H144v9.82h-8.06a19.541 19.541 0 0 1-1.937 4.733l5.083 5.082-7.364 7.358-5.09-5.083a19.227 19.227 0 0 1-4.725 1.937V144h-9.821v-8.06a19.227 19.227 0 0 1-4.725-1.937l-5.09 5.083-7.364-7.358 5.083-5.082a19.541 19.541 0 0 1-1.937-4.732H90v-9.821h8.06a19.615 19.615 0 0 1 1.937-4.732l-5.083-5.083 7.364-7.364 5.09 5.083a19.227 19.227 0 0 1 4.725-1.938V90h9.821v8.053a19.227 19.227 0 0 1 4.725 1.937l5.09-5.083 7.364 7.365-5.083 5.082zM117 127.8c5.974 0 10.8-4.826 10.8-10.8 0-5.967-4.826-10.8-10.8-10.8-5.974 0-10.8 4.833-10.8 10.8 0 5.974 4.826 10.8 10.8 10.8z" fill="#FFF"/></g></svg>
