<svg width="176" height="176" viewBox="0 0 176 176" xmlns="http://www.w3.org/2000/svg"><g fill="none" fill-rule="evenodd"><path d="M16.672 176C7.464 176 0 168.536 0 159.328V16.672C0 7.464 7.464 0 16.672 0h142.656C168.536 0 176 7.464 176 16.672v142.656c0 9.208-7.464 16.672-16.672 16.672H16.672z" fill="#63B23E" fill-rule="nonzero"/><path d="M46 36.5h112v112H46z"/><g fill="#FFF" fill-rule="nonzero"><path d="M64.667 78.5H94v9.333H64.667zM64.667 97.167h20v9.333h-20z"/><path d="M55.333 45.833H102V64.5h18.667v11.667H130V57.9L108.599 36.5H55.333C50.186 36.5 46 40.69 46 45.833v84c0 5.148 4.186 9.334 9.333 9.334h32v-9.334h-32v-84z"/></g><g fill="#FFF"><path d="M124.34 83c17.864 0 32.34 14.476 32.34 32.34 0 17.864-14.476 32.34-32.34 32.34-17.864 0-32.34-14.476-32.34-32.34C92 97.476 106.476 83 124.34 83zm19.173 33.88v-3.157a2.76 2.76 0 0 0-2.772-2.772h-9.317c-1.54 0-2.772-1.309-2.772-2.849v-9.317c0-1.54-1.309-2.772-2.849-2.772h-3.157a2.76 2.76 0 0 0-2.772 2.772v9.317c0 1.54-1.309 2.849-2.849 2.849h-9.24c-1.617 0-2.849 1.232-2.849 2.772v3.157a2.842 2.842 0 0 0 2.849 2.849h9.24c1.54 0 2.849 1.232 2.849 2.772v9.317a2.76 2.76 0 0 0 2.772 2.772h3.157c1.54 0 2.849-1.232 2.849-2.772v-9.317a2.76 2.76 0 0 1 2.772-2.772h9.317c1.54 0 2.772-1.309 2.772-2.849z"/></g></g></svg>
