<svg width="176" height="176" viewBox="0 0 176 176" xmlns="http://www.w3.org/2000/svg"><title>Tradeshift.DocumentList</title><g fill="none" fill-rule="evenodd"><path d="M16.672 176C7.464 176 0 168.536 0 159.328V16.672C0 7.464 7.464 0 16.672 0h142.656C168.536 0 176 7.464 176 16.672v142.656c0 9.208-7.464 16.672-16.672 16.672H16.672z" fill="#00B0FF" fill-rule="nonzero"/><path d="M32 32h112v112H32z"/><g fill-rule="nonzero" fill="#FFF"><path d="M113.265 32H78.667c-5.148 0-9.334 4.19-9.334 9.333v65.334c0 5.147 4.186 9.333 9.334 9.333h46.666c5.148 0 9.334-4.186 9.334-9.333V53.4L113.265 32zm12.073 74.667H78.667V41.333h28V60h18.666l.005 46.667z"/><path d="M64.667 46h-9.334v74.667c0 5.147 4.186 9.333 9.334 9.333h56v-9.333h-56V46z"/><path d="M50.667 60h-9.334v74.667c0 5.147 4.186 9.333 9.334 9.333h56v-9.333h-56V60z"/></g></g></svg>
