<?xml version="1.0" encoding="UTF-8"?><svg width="176px" height="176px" viewBox="0 0 176 176" version="1.1" xmlns="http://www.w3.org/2000/svg" xmlns:xlink="http://www.w3.org/1999/xlink">
    <title>Tradeshift.DocumentManager</title>
    <defs></defs>
    <g id="Page-1" stroke="none" stroke-width="1" fill="none" fill-rule="evenodd">
        <g id="Tradeshift.DocumentManager">
            <path d="M16.672,176 C7.464,176 0,168.536 0,159.328 L0,16.672 C0,7.464 7.464,0 16.672,0 L159.328,0 C168.536,0 176,7.464 176,16.672 L176,159.328 C176,168.536 168.536,176 159.328,176 L16.672,176 Z" id="shape" fill="#00B0FF" fill-rule="nonzero"></path>
            <g id="Group-3" transform="translate(37.000000, 37.000000)" stroke="#FFFFFF" stroke-width="10" stroke-linejoin="round">
                <path d="M19,40 L83,40" id="Path-10"></path>
                <path d="M27,24 L75,24" id="Path-10"></path>
                <path d="M102,56 L0,56" id="Path-14"></path>
                <path d="M39,79 L63,79" id="Path-15"></path>
                <polyline id="Path-13" stroke-linecap="round" points="83 16 102 56 102 102 0 102 0 56 19 16"></polyline>
                <polyline id="Path-16" points="8 39 8 0 94 0 94 39"></polyline>
            </g>
        </g>
    </g>
</svg>
