<svg width="176" height="176" viewBox="0 0 176 176" xmlns="http://www.w3.org/2000/svg"><title>discover</title><g fill="none"><path d="M17.097 176C7.464 176 0 168.536 0 159V17C0 7.464 7.464 0 17.097 0h141.806C168.536 0 176 7.464 176 17v142c0 9.536-7.464 17-17.097 17H17.097z" fill="#00B0FF"/><path d="M133.043 108.265l-16.675-54.491c-1.633-5.32-6.449-8.899-11.982-8.899-6.914 0-12.54 5.656-12.54 12.608v5.892h-9.199v-5.892c0-6.952-5.626-12.608-12.54-12.608-5.537 0-10.349 3.58-11.982 8.899l-16.674 54.491a4.68 4.68 0 0 0-.202 1.36v2.313c0 11.479 9.287 20.812 20.699 20.812s20.699-9.333 20.699-20.813V91.126h9.2v20.813c0 11.479 9.287 20.812 20.699 20.812s20.699-9.333 20.699-20.813v-2.312c0-.463-.07-.92-.202-1.36zM61.948 123.5c-6.339 0-11.5-5.19-11.5-11.563s5.161-11.562 11.5-11.562c6.338 0 11.5 5.19 11.5 11.563s-5.162 11.562-11.5 11.562zm50.598 0c-6.339 0-11.5-5.19-11.5-11.563s5.161-11.562 11.5-11.562c6.338 0 11.5 5.19 11.5 11.563s-5.162 11.562-11.5 11.562z" fill="#FFF"/></g></svg>
