<svg width="176" height="176" viewBox="0 0 176 176" xmlns="http://www.w3.org/2000/svg"><title>Tradeshift.NetworkManager</title><g fill="none" fill-rule="evenodd"><path d="M16.672 176C7.464 176 0 168.536 0 159.328V16.672C0 7.464 7.464 0 16.672 0h142.656C168.536 0 176 7.464 176 16.672v142.656c0 9.208-7.464 16.672-16.672 16.672H16.672z" fill="#00B0FF" fill-rule="nonzero"/><path d="M88 32c30.927 0 56 25.069 56 55.991C144 118.915 118.927 144 88 144c-30.929 0-56-25.085-56-56.009C32 57.07 57.071 32 88 32zm0 8.84l-1.805.034c1.22 2.72-4.267 5.51-4.76 9.21-.535 4.018-2.947 8.036-4.019 5.357-1.071-2.679-3.75-2.679-7.234-4.554-2.125-1.144-3.31-3.216-3.362-5.034A47.346 47.346 0 0 0 52.157 57.35c1.932 2.298 5.892 4.458 8.81 4.286 4.08-.24-.6-8.037.6-8.277 1.2-.24 9.36 3.119 11.399 6.597 2.039 3.48-3.96 3.96-6.48 6.24-2.52 2.278-5.519 7.318-5.398 10.915.12 3.6-.48 5.759-1.68 4.559-1.2-1.199-6.719-5.038-10.44 0-3.718 5.039 7.92 6.238 8.88 10.077.96 3.839 4.679 2.399 5.279 1.8.6-.6 6.719-1.08 8.159 1.2 1.44 2.279 5.28.36 6.479 4.918 1.2 4.558 8.279 3.839 9.238 7.078.96 3.239-1.32 9.956-3.959 11.517-2.639 1.559-3.6 4.918-6.12 6.837-1.331.955-3.501 4.035-5.445 7.116 5.14 1.876 10.708 2.947 16.521 2.947 8.509 0 16.49-2.277 23.382-6.161-1.432-.402-2.069-5.684-3.742-11.819-1.799-6.598-.119-10.198-.959-12.836-.84-2.64.24-6.958-6.36-7.439-6.598-.48-9.958-1.559-9.718-8.276.24-6.718 5.28-12.716 9.239-14.156 3.959-1.44 5.639-.48 7.44 1.44 1.798 1.92 9.357 1.319 10.916 2.999 1.561 1.678 4.8 11.995 6.84 13.435 2.04 1.44 5.878-.48 6.12 1.44.163 1.314-7.08 7.797-7.2 11.997-.12 4.198-2.76 13.074-2.88 15.594l-.035.253a47.371 47.371 0 0 0 5.999-7.186c.415-1.743 1.015-3.211 1.596-3.743.359-.33.618-.363.8-.186a46.931 46.931 0 0 0 5.72-22.524l-.018-1.253a4.912 4.912 0 0 1-.503.93c-.84 1.2-6.719 3.959-7.68 3.959-.959 0-5.999-10.557-7.079-12.837-1.08-2.28 2.16-3.839 1.44-5.277-.719-1.44-3.6 1.918-4.679.119-1.08-1.8-2.279-2.52-2.52-1.32-.24 1.2-.48 2.16-1.199 1.56-.72-.6-1.56-3.719-1.92-4.559-.36-.84-1.68 0-.84.6s.48 1.92.24 2.879c-.24.96-2.4.96-1.68-.12.72-1.079-.24-1.44-1.56-3.238-1.319-1.8-3.718-1.2-4.679-.96-.96.24-2.16 4.199-3.6 5.637-1.439 1.44-3.48.96-4.678-1.559-1.2-2.52 3.6-3.239 5.039-3.6 1.44-.358-1.68-3.478-.96-3.597.72-.12 4.199-2.52 5.758-3.72 1.561-1.199-.959-2.039-.24-2.399.721-.36 2.76 1.32 3.481 1.2.72-.12-.241-2.88-3.36-2.999-3.12-.12-.72-2.88 1.68-3.96 1.979-.889 4.042-3.573 8.606-4.689A46.94 46.94 0 0 0 88 40.841zm9.202 16.118c0-.721 1.56.598 1.8 1.32.24.718 3 2.638 1.799 3.957-1.2 1.32-2.998.84-3.24-.24 0 0 .121-.36.84-.84.721-.479-1.199-3.478-1.199-4.197zm-.72 2.638c.6-.24.48 1.08-.24 2.04s-2.456.176-1.92-.36c.48-.48 1.56-1.44 2.16-1.68zm33.257 6.43c-.982.623-1.533 1.873-1.222 2.808.48 1.438.96 5.277 3.24 5.517 2.182.23.407-1.848.147-3.606a46.844 46.844 0 0 0-2.165-4.719zm-10.34.409c-1.476.147-3.24 2.518-1.44 3.718 1.8 1.199 3 .36 4.559.72 1.56.36 3.12-1.44 1.56-2.76-1.56-1.32-3.479-1.799-4.68-1.678zm9.839 13.195c-1.32 2.76 4.198 2.639 5.518 3.6l.178.15-.332-2.647c-1.882-1.528-4.432-3.053-5.364-1.103zM42.73 82.15c-1.32-.721-1.08 1.799-1.56 1.32l-.101-.119a47.429 47.429 0 0 0-.227 4.64c0 17.149 9.156 32.158 22.846 40.47.57-3.972 1.28-7.601 1.838-9.483 1.32-4.44-5.639-11.036-5.878-13.316-.24-2.28 1.92-7.797 1.68-9.117-.24-1.32-1.56-.12-2.16-.12-.6 0-2.16-2.4-4.32-4.68-2.159-2.278-8.758-3.238-9.717-4.318-.961-1.08-1.082-4.558-2.401-5.277z" fill="#FFF"/><circle fill="#00B0FF" cx="124" cy="124" r="36"/><path d="M143.638 110.908l-6.546-6.546-4.524 4.518a17.09 17.09 0 0 0-4.2-1.722V100h-8.73v7.164a17.09 17.09 0 0 0-4.2 1.722l-4.524-4.518-6.546 6.546 4.518 4.518a17.47 17.47 0 0 0-1.722 4.206H100v8.73h7.158c.39 1.5.978 2.892 1.722 4.206l-4.518 4.518 6.546 6.54 4.524-4.518a17.09 17.09 0 0 0 4.2 1.722V148h8.73v-7.158a17.09 17.09 0 0 0 4.2-1.722l4.524 4.518 6.546-6.54-4.518-4.518a17.37 17.37 0 0 0 1.722-4.206H148v-8.73h-7.158a17.6 17.6 0 0 0-1.722-4.218l4.518-4.518zM114.4 124c0-5.304 4.29-9.6 9.6-9.6s9.6 4.296 9.6 9.6c0 5.31-4.29 9.6-9.6 9.6a9.59 9.59 0 0 1-9.6-9.6z" fill="#FFF" fill-rule="nonzero"/></g></svg>
