<svg width="176" height="176" viewBox="0 0 176 176" xmlns="http://www.w3.org/2000/svg"><title>Tradeshift.BuyerMarketplaceManager</title><g fill="none" fill-rule="evenodd"><path d="M16.672 176C7.464 176 0 168.536 0 159.328V16.672C0 7.464 7.464 0 16.672 0h142.656C168.536 0 176 7.464 176 16.672v142.656c0 9.208-7.464 16.672-16.672 16.672H16.672z" fill-rule="nonzero" fill="#00B0FF"/><path d="M42 37h110v110H42z"/><path d="M124.8 73.8V100h9.2V69.2a5.058 5.058 0 0 0-.331-1.642c-.05-.129-.115-.244-.175-.368-.092-.175-.147-.368-.267-.538l-18.4-27.6A4.593 4.593 0 0 0 111 37H65a4.606 4.606 0 0 0-3.827 2.047l-18.4 27.6c-.11.17-.175.363-.262.543-.06.124-.13.239-.18.368a4.529 4.529 0 0 0-.313 1.56L42 124.4a4.6 4.6 0 0 0 4.6 4.6h50.2v-9.2H51.2v-46h73.6zm-3.993-9.2H92.6V46.2h15.939l12.268 18.4zM67.461 46.2H83.4v18.4H55.197l12.264-18.4zm74.359 64.806l-18.668 18.631-9.972-9.951-6.148 6.136 16.12 16.089 24.816-24.769z" fill="#FFF" fill-rule="nonzero"/></g></svg>
