<svg width="176" height="176" viewBox="0 0 176 176" xmlns="http://www.w3.org/2000/svg"><title>Tradeshift.SupplierOfferViewer</title><g fill="none" fill-rule="evenodd"><path d="M16.672 176C7.464 176 0 168.536 0 159.328V16.672C0 7.464 7.464 0 16.672 0h142.656C168.536 0 176 7.464 176 16.672v142.656c0 9.208-7.464 16.672-16.672 16.672H16.672z" fill="#00B0FF" fill-rule="nonzero"/><path d="M32 32h112v112H32z"/><g fill-rule="nonzero" fill="#FFF"><path d="M125.333 46H92.667v-4.667A4.662 4.662 0 0 0 88 36.667H60a4.662 4.662 0 0 0-4.667 4.666V46h-4.666c-5.152 0-9.334 4.181-9.334 9.333v70c0 5.152 4.182 9.334 9.334 9.334h74.666c5.152 0 9.334-4.182 9.334-9.334v-70c0-5.152-4.182-9.333-9.334-9.333zm-60.666 0h18.666v40.068L77.3 80.034a4.654 4.654 0 0 0-3.3-1.367c-1.195 0-2.39.457-3.3 1.367l-6.033 6.034V46zm60.652 79.333H50.667v-70h4.666v42a4.67 4.67 0 0 0 2.88 4.312 4.676 4.676 0 0 0 5.086-1.012L74 89.932l10.7 10.7a4.668 4.668 0 0 0 5.087 1.013 4.67 4.67 0 0 0 2.88-4.312v-42h32.666l-.014 70z"/><path d="M97.333 64.667H116V74H97.333zm0 14H116V88H97.333zm0 14H116V102H97.333zm-37.333 14h56V116H60z"/></g></g></svg>
