<svg width="176" height="176" viewBox="0 0 176 176" xmlns="http://www.w3.org/2000/svg"><g fill="none" fill-rule="evenodd"><path d="M16.672 176C7.464 176 0 168.536 0 159.328V16.672C0 7.464 7.464 0 16.672 0h142.656C168.536 0 176 7.464 176 16.672v142.656c0 9.208-7.464 16.672-16.672 16.672H16.672z" fill="#63B23E" fill-rule="nonzero"/><path d="M46 36.5h112v112H46z"/><g fill="#FFF" fill-rule="nonzero"><path d="M64.667 78.5H102v9.333H64.667zM64.667 97.167h28v9.333h-28z"/><path d="M55.333 45.833H102V64.5h18.667v18.667H130V57.9L108.599 36.5H55.333C50.186 36.5 46 40.69 46 45.833v84c0 5.148 4.186 9.334 9.333 9.334h51v-9.334h-51v-84z"/></g><g transform="translate(106 102)"><path stroke="#FFF" stroke-width="9" stroke-linejoin="round" d="M0 0h10l9 23h23.022L47 4H12"/><circle fill="#FFF" cx="23" cy="37" r="5"/><circle fill="#FFF" cx="38" cy="37" r="5"/></g></g></svg>
