<svg width="176" height="176" viewBox="0 0 176 176" xmlns="http://www.w3.org/2000/svg"><g fill="none" fill-rule="evenodd"><path d="M16.672 176C7.464 176 0 168.536 0 159.328V16.672C0 7.464 7.464 0 16.672 0h142.656C168.536 0 176 7.464 176 16.672v142.656c0 9.208-7.464 16.672-16.672 16.672H16.672z" fill="#63B23E" fill-rule="nonzero"/><path d="M46 36.5h112v112H46z"/><g fill="#FFF" fill-rule="nonzero"><path d="M64.667 78.5H94v9.333H64.667zM64.667 97.167h20v9.333h-20z"/><path d="M55.333 45.833H102V64.5h18.667v11.667H130V57.9L108.599 36.5H55.333C50.186 36.5 46 40.69 46 45.833v84c0 5.148 4.186 9.334 9.333 9.334h32v-9.334h-32v-84z"/></g><g transform="translate(92 83)" fill="#FFF" fill-rule="nonzero"><path d="M33.333.667C15.325.667.667 15.32.667 33.333.667 51.347 15.325 66 33.333 66 51.342 66 66 51.347 66 33.333 66 15.32 51.342.667 33.333.667zm0 56C20.467 56.667 10 46.199 10 33.333S20.467 10 33.333 10C46.2 10 56.667 20.467 56.667 33.333c0 12.866-10.468 23.334-23.334 23.334z"/><path d="M28.667 30.333H38V49h-9.333z"/><circle cx="33.333" cy="21" r="4.667"/></g></g></svg>
