<svg width="176" height="176" viewBox="0 0 176 176" xmlns="http://www.w3.org/2000/svg"><title>Tradeshift.CompanyProfile</title><g fill="none" fill-rule="evenodd"><path d="M16.672 176C7.464 176 0 168.536 0 159.328V16.672C0 7.464 7.464 0 16.672 0h142.656C168.536 0 176 7.464 176 16.672v142.656c0 9.208-7.464 16.672-16.672 16.672H16.672z" fill="#00B0FF" fill-rule="nonzero"/><path d="M140 32c2.267 0 4 1.733 4 4v104c0 2.267-1.733 4-4 4H89.6V73.867c0-3.734-3.067-6.667-6.667-6.667H66.4V36c0-2.267 1.867-4 4-4H140zM75.6 57.6h13.6V44H75.6v13.6zm23.2 0h13.6V44H98.8v13.6zm23.2 0h13.6V44H122v13.6zM98.8 80.8h13.6V67.2H98.8v13.6zm23.2 0h13.6V67.2H122v13.6zm-47.067-3.2c2.267 0 4 1.733 4 4V144H36c-2.133 0-4-1.867-4-4.133V81.6c0-2.267 1.867-4 4-4h38.933zM98.8 104.533h13.6v-13.6H98.8v13.6zm23.2 0h13.6v-13.6H122v13.6zM98.8 128.8h13.6v-13.467H98.8V128.8zm23.2 0h13.6v-13.467H122V128.8z" fill="#FFF"/></g></svg>
