<svg width="176" height="176" viewBox="0 0 176 176" xmlns="http://www.w3.org/2000/svg"><title>Tradeshift.SupportLauncher</title><g fill="none" fill-rule="evenodd"><path d="M16.672 176C7.464 176 0 168.536 0 159.328V16.672C0 7.464 7.464 0 16.672 0h142.656C168.536 0 176 7.464 176 16.672v142.656c0 9.208-7.464 16.672-16.672 16.672H16.672z" fill="#00B0FF" fill-rule="nonzero"/><path d="M87.627 35.164a52.69 52.69 0 0 0-14.052 1.898 28.324 28.324 0 0 0-10.238-1.898c-7.569 0-14.685 2.948-20.037 8.3-5.352 5.352-8.3 12.469-8.3 20.038 0 3.558.652 7.016 1.898 10.237A52.674 52.674 0 0 0 35 87.791a52.7 52.7 0 0 0 1.898 14.052A28.325 28.325 0 0 0 35 112.08c0 7.51 2.948 14.624 8.3 20.022 5.352 5.397 12.468 8.342 20.037 8.342 3.558 0 7.016-.736 10.238-1.963 4.473 1.227 9.185 1.963 14.052 1.963 4.866 0 9.578-.736 14.051-1.963 3.222 1.227 6.68 1.963 10.238 1.963 7.569 0 14.685-2.945 20.037-8.342 5.352-5.398 8.3-12.513 8.3-20.022 0-3.558-.652-7.016-1.898-10.237a52.68 52.68 0 0 0 1.898-14.052 52.69 52.69 0 0 0-1.898-14.052 28.324 28.324 0 0 0 1.898-10.237c0-7.57-2.948-14.686-8.3-20.038s-12.468-8.3-20.037-8.3c-3.558 0-7.016.652-10.238 1.898a52.674 52.674 0 0 0-14.051-1.898zm-49.274 71.15c5.327 14.134 16.586 25.42 30.75 30.695-1.854.49-3.784.736-5.766.736-14.137 0-25.638-11.531-25.638-25.665 0-1.982.226-3.912.654-5.766zm23.065-7.667c2.778 6.707 8.115 12.355 15.352 15.353l-8.142 19.697c-12.665-5.275-22.005-15.17-26.868-26.908l19.658-8.142zm52.418 0l19.657 8.142c-5.247 12.678-15.13 22-26.869 26.908L98.483 114c6.707-2.778 12.355-8.115 15.353-15.353zM63.337 37.863c1.982 0 3.912.227 5.766.655-14.164 5.327-25.423 16.586-30.75 30.75a25.622 25.622 0 0 1-.654-5.766c0-14.137 11.501-25.639 25.638-25.639zm24.29 24.29c14.16 0 25.638 11.478 25.638 25.638 0 14.16-11.479 25.638-25.638 25.638-14.16 0-25.639-11.478-25.639-25.638 0-14.16 11.479-25.639 25.639-25.639zm49.273 44.161c.428 1.854.654 3.784.654 5.766 0 14.134-11.501 25.665-25.638 25.665-1.982 0-3.912-.246-5.766-.736 14.164-5.275 25.423-16.561 30.75-30.695zM68.628 41.925l8.142 19.657c-6.707 2.778-12.355 8.115-15.352 15.353L41.76 68.793c5.247-12.666 15.13-22.006 26.868-26.868zm37.997 0c12.665 5.246 22.006 15.13 26.868 26.868l-19.657 8.142a28.28 28.28 0 0 0-15.353-15.353l8.142-19.657zm5.29-4.062c14.138 0 25.64 11.502 25.64 25.639a25.62 25.62 0 0 1-.655 5.766c-5.327-14.164-16.586-25.423-30.75-30.75a25.627 25.627 0 0 1 5.766-.655z" fill="#FFF"/></g></svg>
