<svg width="176" height="176" viewBox="0 0 176 176" xmlns="http://www.w3.org/2000/svg"><title>Tradeshift.SupplierMarketplaceManager</title><g fill="none" fill-rule="evenodd"><path d="M17.097 176C7.464 176 0 168.536 0 159V17C0 7.464 7.464 0 17.097 0h141.806C168.536 0 176 7.464 176 17v142c0 9.536-7.464 17-17.097 17H17.097z" fill="#00B0FF" fill-rule="nonzero"/><path d="M89.51 84.46h61.662v61.538H89.51z"/><path d="M141.615 105.372l2.058-2.053c3.142-3.134 3.142-8.239 0-11.375-3.045-3.036-8.35-3.038-11.398 0l-2.076 2.072 11.416 11.356zm-3.654 3.641l-23.403 23.356c-.2.198-.422.36-.668.482l-15.526 7.75a2.571 2.571 0 0 1-2.965-.483 2.558 2.558 0 0 1-.48-2.959l7.758-15.495a2.73 2.73 0 0 1 .483-.666l23.404-23.356 11.397 11.371zM124.12 73.8V78h9.15v-8.8a5.082 5.082 0 0 0-.33-1.642c-.05-.129-.113-.244-.173-.368-.091-.175-.146-.368-.265-.538l-18.3-27.6A4.561 4.561 0 0 0 110.396 37h-45.75a4.574 4.574 0 0 0-3.806 2.047l-18.3 27.6c-.11.17-.174.363-.26.543-.06.124-.129.239-.18.368a4.55 4.55 0 0 0-.31 1.56l-.02 55.282c0 2.54 2.05 4.6 4.575 4.6h36.998v-9.2H50.92v-46h73.2zm-3.97-9.2H92.095V46.2h15.852l12.201 18.4zM67.093 46.2h15.852v18.4h-28.05l12.198-18.4z" fill-rule="nonzero" fill="#FFF"/></g></svg>
