<svg width="176" height="176" viewBox="0 0 176 176" xmlns="http://www.w3.org/2000/svg"><title>Tradeshift.BranchSelector</title><g fill="none" fill-rule="evenodd"><path d="M16.672 176C7.464 176 0 168.536 0 159.328V16.672C0 7.464 7.464 0 16.672 0h142.656C168.536 0 176 7.464 176 16.672v142.656c0 9.208-7.464 16.672-16.672 16.672H16.672z" fill="#00B0FF" fill-rule="nonzero"/><path stroke="#FFF" stroke-width="10" stroke-linecap="round" stroke-linejoin="round" d="M48 37h80v27H48z"/><circle stroke="#FFF" stroke-width="10" stroke-linecap="round" stroke-linejoin="round" cx="48" cy="128" r="11"/><circle stroke="#FFF" stroke-width="10" stroke-linecap="round" stroke-linejoin="round" cx="88" cy="128" r="11"/><circle stroke="#FFF" stroke-width="10" stroke-linecap="round" stroke-linejoin="round" cx="128" cy="128" r="11"/><path d="M88 64v53m-40 0v-13c0-8.837 7.163-16 16-16h48c8.837 0 16 7.163 16 16v13" stroke="#FFF" stroke-width="10" stroke-linecap="round" stroke-linejoin="round"/></g></svg>
