<svg width="176" height="176" viewBox="0 0 176 176" xmlns="http://www.w3.org/2000/svg"><title>Medmro</title><g fill="none" fill-rule="evenodd"><path d="M16.672 176C7.464 176 0 168.536 0 159.328V16.672C0 7.464 7.464 0 16.672 0h142.656C168.536 0 176 7.464 176 16.672v142.656c0 9.208-7.464 16.672-16.672 16.672H16.672z" fill="#00B0FF" fill-rule="nonzero"/><path d="M99 38c13.98 0 25.312 11.2 25.312 25.013 0 10.216-6.198 19-15.08 22.884C129.154 88.471 144 98.402 144 110.26v19.497c0 4.548-3.778 8.243-8.438 8.243H62.438c-4.661 0-8.438-3.695-8.438-8.243V110.26c0-11.858 14.845-21.789 34.767-24.363-8.882-3.884-15.08-12.668-15.08-22.884C73.688 49.2 85.022 38 99 38zm-32.098 2c2.887 0 5.629.611 8.098 1.711-5.235 5.718-8.098 13.03-8.098 20.776a30.7 30.7 0 0 0 5.196 17.07c.96 1.438.515 2.94-1.12 3.555-4.141 1.559-7.897 3.478-11.17 5.725-8.156 5.6-12.649 12.952-12.649 20.7V124h-8.616C34.93 124 32 121.193 32 117.647v-21.99c0-9.134 11.513-16.783 26.965-18.766-6.888-2.992-11.696-9.757-11.696-17.625 0-10.64 8.79-19.266 19.633-19.266z" fill="#FFF"/></g></svg>
